<?xml version="1.0" encoding="UTF-8"?>
<svg id="Layer_1" xmlns="http://www.w3.org/2000/svg" version="1.1" viewBox="0 0 595.28 841.89">
  <!-- Generator: Adobe Illustrator 30.0.0, SVG Export Plug-In . SVG Version: 2.1.1 Build 123)  -->
  <defs>
    <style>
      .st0 {
        fill: #010101;
      }
    </style>
  </defs>
  <path class="st0" d="M332.99,435.5h36.49c.44,0,.79-.35.79-.79v-9.97c0-.44-.35-.79-.79-.79h-25.65v-11.1h18.13c.44,0,.79-.35.79-.79v-10.05c0-.44-.35-.79-.79-.79h-18.13v-14.32h25.49c.44,0,.79-.36.79-.79v-9.97c0-.44-.35-.79-.79-.79h-36.33c-.44,0-.79.35-.79.79v58.58c0,.44.35.79.79.79"/>
  <path class="st0" d="M385.34,435.5h9.18c.44,0,.79-.35.79-.79v-37.98l19.13,38.33c.13.27.41.44.71.44h9.29c.44,0,.79-.35.79-.79v-58.58c0-.44-.35-.79-.79-.79h-9.18c-.44,0-.79.35-.79.79v33.69l-16.83-34.04c-.13-.27-.41-.44-.71-.44h-11.59c-.44,0-.79.35-.79.79v58.58c0,.44.35.79.79.79"/>
  <path class="st0" d="M287.1,435.27c.15.15.35.23.56.23h19.51c.21,0,.41-.08.56-.23l9.96-9.87c.15-.15.23-.35.23-.56v-22.84c0-.44-.35-.79-.79-.79h-17.21c-.44,0-.79.36-.79.79v10.06c0,.44.35.79.79.79h6.36v7.67l-3.37,3.43h-10.99l-3.37-3.43v-30.5l3.12-3.12h11.49l3.12,3.12v3.02c0,.44.35.79.79.79h10.05c.44,0,.79-.35.79-.79v-7.43c0-.21-.08-.41-.23-.56l-9.48-9.48c-.15-.15-.35-.23-.56-.23h-20.39c-.21,0-.41.08-.56.23l-9.48,9.48c-.15.15-.23.35-.23.56v39.23c0,.21.09.41.23.56l9.87,9.87Z"/>
  <path class="st0" d="M209.1,402.75v-26.62c0-.44-.35-.79-.79-.79h-9.82c-.44,0-.79.35-.79.79v20.77l-8.27,6.57-8.11-6.56v-20.78c0-.44-.36-.79-.79-.79h-9.98c-.44,0-.79.35-.79.79v26.62c0,.24.11.46.29.61l13.56,11.16v20.19c0,.44.35.79.79.79h10.05c.44,0,.79-.35.79-.79v-20.19l13.57-11.16c.18-.15.29-.37.29-.61"/>
  <path class="st0" d="M233.01,435.27c.15.15.35.23.56.23h18.96c.21,0,.41-.08.56-.23l9.4-9.4c.15-.15.23-.35.23-.56v-49.18c0-.44-.35-.79-.79-.79h-9.82c-.44,0-.79.35-.79.79v44.37l-3.44,3.44h-9.51l-3.44-3.44v-44.37c0-.44-.35-.79-.79-.79h-9.97c-.44,0-.79.35-.79.79v49.18c0,.21.08.41.23.56l9.4,9.4Z"/>
  <path class="st0" d="M230.84,368.66h24.42c.44,0,.79-.35.79-.79v-5.03c0-.44-.36-.79-.79-.79h-24.42c-.44,0-.79.35-.79.79v5.03c0,.44.35.79.79.79"/>
  <path class="st0" d="M233.77,454.07c.18.23.32.5.32.82v17.95c0,.32-.14.59-.32.82l-5.97,5.92c-.23.23-.5.36-.82.36h-13.26c-.32,0-.59-.27-.59-.59v-30.7c0-.32.27-.59.59-.59h13.53c.32,0,.59.14.82.32l5.7,5.69ZM218.96,474.16h6.15c.14,0,.32-.05.41-.18l2.6-2.6c.14-.09.18-.27.18-.41v-14.08c0-.14-.05-.32-.18-.41l-2.42-2.46c-.14-.14-.27-.18-.41-.18h-6.33v20.32Z"/>
  <path class="st0" d="M266.61,475.71c.09.23.18.45.18.64v3.01c0,.32-.27.59-.64.59h-2.96c-.23,0-.41-.09-.5-.27l-6.92-10.98h-4.46v10.61c0,.36-.27.64-.64.64h-4.55c-.37,0-.64-.27-.64-.64v-30.61c0-.36.27-.64.64-.64h14.35c.32,0,.64.14.86.36l4.51,4.51c.23.23.36.5.36.82v9.2c0,.32-.14.64-.36.86l-4.15,4.15,4.92,7.74ZM251.3,453.84v9.34h7.06c.14,0,.32-.04.41-.18l1.46-1.41c.09-.14.18-.27.18-.46v-5.24c0-.18-.09-.32-.18-.41l-1.46-1.46c-.09-.14-.27-.18-.41-.18h-7.06Z"/>
  <rect class="st0" x="278.18" y="448.06" width="5.83" height="31.89" rx=".59" ry=".59"/>
  <path class="st0" d="M311.43,467.28v-18.63c0-.32.27-.59.64-.59h4.14c.32,0,.59.27.59.59v30.7c0,.32-.27.59-.59.59h-4.01c-.45,0-.86-.27-1.05-.68l-10.43-20.82v20.91c0,.32-.27.59-.59.59h-4.14c-.37,0-.59-.27-.59-.59v-30.7c0-.32.23-.59.59-.59h5.19c.46,0,.91.27,1.09.68l9.16,18.54Z"/>
  <path class="st0" d="M340.77,460.04l8.79,19.09c.18.36-.09.82-.55.82h-4.83c-.23,0-.45-.14-.55-.32l-6.7-14.72-2.82,3.51v10.93c0,.32-.27.59-.59.59h-4.74c-.32,0-.59-.27-.59-.59v-30.7c0-.32.27-.59.59-.59h4.74c.32,0,.59.27.59.59v10.98l9.25-11.34c.14-.14.32-.23.5-.23h5.24c.55,0,.82.59.5,1l-8.84,10.98Z"/>
  <path class="st0" d="M380.73,474.39c0,.32-.14.64-.36.87l-4.33,4.33c-.23.23-.55.37-.87.37h-9.88c-.32,0-.59-.14-.82-.37l-4.37-4.33c-.23-.23-.36-.55-.36-.87v-4.1c0-.32.27-.59.64-.59h4.55c.37,0,.59.27.59.59v1.96c0,.14.09.32.18.41l1.32,1.32c.14.14.27.18.46.18h5.51c.18,0,.32-.05.46-.18l1.32-1.32c.09-.09.18-.27.18-.41v-5.06l-.96-.96h-9.66c-.32,0-.64-.09-.86-.32l-3.37-3.33c-.23-.23-.36-.55-.36-.87v-8.34c0-.32.14-.64.36-.87l4.1-4.1c.23-.23.55-.36.87-.36h10.07c.32,0,.64.14.86.36l4.1,4.1c.23.23.36.55.36.87v3.05c0,.32-.27.59-.59.59h-4.65c-.32,0-.59-.27-.59-.59v-.82c0-.14-.09-.27-.18-.41l-1.14-1.18c-.09-.14-.27-.18-.46-.18h-5.56c-.14,0-.27.05-.41.18l-1.18,1.18c-.09.09-.18.27-.18.41v4.15l.96.91h9.75c.32,0,.64.14.87.36l3.28,3.23c.23.23.36.55.36.87v9.25Z"/>
</svg>